<?xml version="1.0" encoding="utf-8"?>
<!-- Generator: Adobe Illustrator 23.0.1, SVG Export Plug-In . SVG Version: 6.00 Build 0)  -->
<svg version="1.1" id="Layer_1" xmlns="http://www.w3.org/2000/svg" xmlns:xlink="http://www.w3.org/1999/xlink" x="0px" y="0px"
	 viewBox="0 0 253 68" style="enable-background:new 0 0 253 68;" xml:space="preserve">
<style type="text/css">
	.st0{fill:#4B4E52;}
	.st1{fill:#5CE500;}
</style>

<path class="st1" d="M48.6,40.8c0,0.6-0.4,1.3-0.9,1.6l-12.5,7.2V21.7L11.1,7.8l12.5-7.2c0.5-0.3,1.3-0.3,1.8,0L48.6,14V40.8z
	 M29.8,24.8l-16.5-9.5c-0.5-0.3-1.3-0.3-1.8,0L0.4,21.7l17.4,10.1l0,20.1l11.2-6.4c0.5-0.3,0.9-1,0.9-1.6V24.8z M0.4,41.9l12.1,7
	V34.9L0.4,41.9z"/>
<g>
	<path class="st0" d="M75.2,14H62v35.6h5.8v-14h7.4c8,0,12.4-3.9,12.4-11C87.6,21.5,86.4,14,75.2,14 M81.6,24.8c0,4-2.1,5.7-7.2,5.7
		h-6.6V19.3h7.4C79.5,19.3,81.6,21.1,81.6,24.8 M104.9,23.7l0.4,0.2l-1,5.3l-0.7-0.2c-0.6-0.2-1.1-0.3-1.7-0.3
		c-5.4,0-5.9,4.3-5.9,9.6v11.3h-5.4V23.5h5.1v3.2c1.4-2.1,3-3.2,5.2-3.5C102.5,23,103.9,23.2,104.9,23.7 M118.2,22.9
		c-4.3,0-7.7,1.6-9.8,4.7c-2.3,3.2-2.6,7-2.6,9c0,8.3,4.9,13.6,12.5,13.6c9.2,0,12.5-7.4,12.5-13.8c0-3.7-1.1-7-3.1-9.4
		C125.4,24.4,122.2,22.9,118.2,22.9 M118.2,45.4c-4.2,0-6.9-3.4-6.9-8.8c0-5.5,2.6-8.9,6.9-8.9c4.2,0,6.9,3.4,6.9,8.8
		C125.1,42,122.5,45.4,118.2,45.4 M176.1,23.7l0.4,0.2l-1,5.3l-0.7-0.2c-0.6-0.2-1.1-0.3-1.7-0.3c-5.4,0-5.9,4.3-5.9,9.6v11.3h-5.4
		V23.5h5.1v3.2c1.4-2.1,3-3.2,5.2-3.5C173.6,23,175,23.2,176.1,23.7 M195.5,41.2l-0.1,0.3c-1.1,3.2-3.8,3.9-5.9,3.9
		c-4.1,0-6.7-2.7-7-7.1H201l0.1-0.5c0.1-0.6,0.1-1.5,0.1-2.1c0-0.2,0-0.3,0-0.5c-0.3-7.3-5-12.2-11.9-12.2c-4,0-7.3,1.6-9.5,4.5
		c-1.8,2.4-2.8,5.7-2.8,9.1c0,8.1,5,13.5,12.5,13.5c5.8,0,9.8-2.9,11.2-8.3l0.2-0.6H195.5z M182.7,33.6c0.5-3.6,2.9-5.9,6.5-5.9
		c2.7,0,5.9,1.6,6.3,5.9H182.7z M152,25.7c-1.7-1.8-4.1-2.7-6.9-2.7c-7.9,0-11.5,7-11.5,13.5c0,6.6,3.6,13.4,11.5,13.4
		c2.7,0,5-1,6.7-2.7c0,1.2,0,2.2-0.1,2.7c-0.3,4.3-2.4,6.3-6.5,6.3c-2.3,0-4.9-0.8-5.4-3.1l-0.1-0.5l-5.3,0l0.1,0.7
		c0.6,4.6,4.6,7.5,10.6,7.5c5.2,0,8.9-2,10.8-5.7c0.9-1.8,1.3-4.4,1.3-7.8V23.5H152V25.7z M145.4,44.9c-1.9,0-6.3-0.9-6.3-8.8
		c0-5.2,2.5-8.4,6.4-8.4c3.1,0,6.3,2.2,6.3,8.4C151.9,41.6,149.5,44.9,145.4,44.9 M226.1,41.7c0,4.2-3.5,8.4-11.2,8.4
		c-6.8,0-10.9-3-11.4-8.3l-0.1-0.6h5.3l0.1,0.4c0.7,3.2,3.7,3.9,6.2,3.9c2.7,0,5.6-0.9,5.6-3.3c0-1.2-0.8-2.1-2.4-2.6
		c-0.9-0.3-2.1-0.6-3.3-0.9c-2.1-0.6-4.3-1.2-5.6-1.7c-3.3-1.2-5.2-3.5-5.2-6.3c0-5.3,5.1-7.6,10.2-7.6c6.8,0,10.3,2.6,10.8,7.8
		l0,0.5l-5.2,0l-0.1-0.4c-0.5-3-3.5-3.5-5.3-3.5c-1.5,0-5,0.3-5,2.8c0,1.1,1,2,3,2.6c0.6,0.2,1.5,0.4,2.5,0.7
		c2.1,0.6,4.8,1.2,6.1,1.7C224.4,36.4,226.1,38.6,226.1,41.7 M251,41.7c0,4.2-3.5,8.4-11.2,8.4c-6.8,0-10.9-3-11.4-8.3l-0.1-0.6h5.3
		l0.1,0.4c0.7,3.2,3.7,3.9,6.2,3.9c2.7,0,5.6-0.9,5.6-3.3c0-1.2-0.8-2.1-2.4-2.6c-0.9-0.3-2.1-0.6-3.3-0.9c-2.1-0.6-4.3-1.2-5.6-1.7
		c-3.3-1.2-5.2-3.5-5.2-6.3c0-5.3,5.1-7.6,10.2-7.6c6.8,0,10.3,2.6,10.8,7.8l0,0.5l-5.2,0l-0.1-0.4c-0.5-3-3.5-3.5-5.3-3.5
		c-1.5,0-5,0.3-5,2.8c0,1.1,1,2,3,2.6c0.6,0.2,1.5,0.4,2.5,0.7c2.1,0.6,4.8,1.2,6.1,1.7C249.3,36.4,251,38.6,251,41.7"/>
	
</g>
</svg>
