<svg xmlns="http://www.w3.org/2000/svg" viewBox="0 0 883.59 241.21"><defs><style>.cls-1{fill:#fff;}.cls-2{fill:#5ce500;}.cls-3{fill:#d1d3d4;}.cls-4{fill:#2cc84d;}</style></defs><g id="Layer_2" data-name="Layer 2"><g id="Layer_1-2" data-name="Layer 1"><path class="cls-1" d="M266.66,67.35h36.6c31.37,0,51.1,20.24,51.1,51.78s-19.73,51.78-51.1,51.78h-36.6Zm35.75,84.5c19.74,0,30.53-12.65,30.53-32.72,0-20.24-10.79-32.89-30.53-32.89H288.08v65.61Z"/><path class="cls-1" d="M380.33,138c1.69,12.31,10.63,17.37,21.76,17.37,8.26,0,14.16-1.85,21.59-6.57V166c-6.25,4.55-14.68,6.58-24.8,6.58-22.93,0-38.62-14.85-38.62-38.79,0-23.62,14.84-40,35.42-40,21.92,0,33.22,15.18,33.22,37.45V138Zm.68-13.66h28.5c-.51-8.09-5.06-13.83-13.33-13.83C389.27,110.53,383.37,114.92,381,124.36Z"/><path class="cls-1" d="M457.75,170.91,429.24,95.52h21.93l17.37,50.09,17-50.09h21.09L478,170.91Z"/><path class="cls-1" d="M536,132.29v38.62H514.58V67.35h42.67c21.76,0,36.26,11.64,36.26,32.89,0,16.53-9.11,27-23.61,30.53l27.32,40.14H572.93L547.3,132.29Zm0-17.71h19.9c10.79,0,16.36-5.74,16.36-14.34,0-8.77-5.57-14.5-16.36-14.5H536Z"/><path class="cls-1" d="M619,138c1.68,12.31,10.62,17.37,21.75,17.37,8.27,0,14.17-1.85,21.59-6.57V166c-6.24,4.55-14.67,6.58-24.79,6.58-22.94,0-38.62-14.85-38.62-38.79,0-23.62,14.84-40,35.41-40,21.93,0,33.23,15.18,33.23,37.45V138Zm.67-13.66h28.5c-.5-8.09-5-13.83-13.32-13.83C627.92,110.53,622,114.92,619.65,124.36Z"/><path class="cls-1" d="M718.48,123.85c0-7.25-6.24-11.8-16.86-11.8A37.32,37.32,0,0,0,681,118.12V100.07c5.4-3.37,15.18-6.24,25.13-6.24,20.74,0,32.38,10.63,32.38,29v48.07H718.48v-4c-2.53,2.53-10,5.4-18.21,5.4-15.18,0-27.83-8.77-27.83-24.46,0-14.33,12.65-24.11,29.18-24.11,6.57,0,13.83,2.19,16.86,4.38Zm0,21.09c-1.85-4.05-7.42-6.58-13.32-6.58-6.58,0-13.33,2.87-13.33,9.28,0,6.57,6.75,9.27,13.33,9.27,5.9,0,11.47-2.53,13.32-6.58Z"/><path class="cls-1" d="M785.1,93.83c7.59,0,15,1.69,20.41,5.91V118.8a26,26,0,0,0-17.88-6.75c-11.13,0-19.9,7.76-19.9,21.25,0,13.32,8.77,21.25,19.9,21.25a26.76,26.76,0,0,0,17.88-6.75v18.89c-5.4,4.22-12.82,5.91-20.41,5.91-21.42,0-38.12-15.18-38.12-39.3C747,109,763.68,93.83,785.1,93.83Z"/><path class="cls-1" d="M815.79,61.28h20.92v41.16c4-4.73,11.47-8.61,20.24-8.61,17,0,26.64,11.14,26.64,27.83v49.25H862.68V126.05c0-7.93-4-13.33-12.31-13.33a13.7,13.7,0,0,0-13.66,10.46v47.73H815.79Z"/><path class="cls-2" d="M200.36,43.57,213,50.88V36.25Zm31-17.88L214,15.66a2.14,2.14,0,0,0-1.88,0l-11.73,6.77L218.66,33V54.14l11.71-6.77a2.12,2.12,0,0,0,1-1.64ZM251,42.48a2.08,2.08,0,0,1-.94,1.63L237,51.7V22.44L211.62,7.81,224.76.22a2.16,2.16,0,0,1,1.89,0L251,14.31Z"/><path class="cls-1" d="M463.67,43.44c0,4.36-3.62,8.77-11.72,8.77-7.16,0-11.42-3.1-12-8.73l-.05-.58h5.58l.08.42c.69,3.38,3.91,4.09,6.5,4.09,2.83,0,5.85-.91,5.85-3.47,0-1.3-.84-2.22-2.5-2.74l-3.49-1c-2.2-.61-4.49-1.26-5.89-1.74-3.49-1.25-5.48-3.68-5.48-6.67,0-5.54,5.38-8,10.72-8,7.14,0,10.84,2.69,11.3,8.22l.05.57h-5.5l-.08-.43c-.55-3.19-3.72-3.66-5.56-3.66-1.58,0-5.28.28-5.28,2.91,0,1.2,1,2.08,3.13,2.69l2.64.69c2.24.58,5,1.31,6.44,1.79,3.49,1.23,5.26,3.54,5.26,6.88m-26.2,0c0,4.36-3.63,8.77-11.72,8.77-7.17,0-11.43-3.1-12-8.73l-.06-.58h5.58l.09.42c.68,3.38,3.9,4.09,6.49,4.09,2.83,0,5.86-.91,5.86-3.47,0-1.3-.85-2.22-2.51-2.74l-3.48-1c-2.21-.61-4.5-1.26-5.9-1.74-3.49-1.25-5.48-3.68-5.48-6.67,0-5.54,5.39-8,10.73-8,7.14,0,10.83,2.69,11.3,8.22l0,.57h-5.5l-.08-.43c-.55-3.19-3.71-3.66-5.56-3.66-1.58,0-5.28.28-5.28,2.91,0,1.2,1,2.08,3.13,2.69l2.64.69c2.24.58,5,1.31,6.44,1.79,3.5,1.23,5.27,3.54,5.27,6.88m-84.72,3.34c-2,0-6.6-.89-6.6-9.21,0-5.47,2.59-8.86,6.75-8.86,3.21,0,6.64,2.32,6.64,8.86,0,5.77-2.54,9.21-6.79,9.21m6.94-20.23a9.68,9.68,0,0,0-7.3-2.86c-8.32,0-12.11,7.33-12.11,14.13,0,7,3.74,14,12.11,14A9.77,9.77,0,0,0,359.48,49c0,1.21-.05,2.36-.09,2.85-.31,4.53-2.48,6.64-6.85,6.64-2.37,0-5.09-.84-5.62-3.21l-.12-.52h-5.59l.09.75c.59,4.84,4.84,7.85,11.09,7.85,5.49,0,9.4-2.07,11.29-6a19.18,19.18,0,0,0,1.38-8.15v-25h-5.37Zm32.21,8.33c.48-3.8,3.09-6.22,6.79-6.22a6.44,6.44,0,0,1,6.64,6.22Zm13.43,8-.11.3c-1.18,3.38-4,4.09-6.18,4.09-4.29,0-7.06-2.85-7.33-7.48h19.42l.07-.54a15.94,15.94,0,0,0,.06-2.19v-.49C411,28.9,406,23.74,398.79,23.74a11.83,11.83,0,0,0-9.94,4.76,16.34,16.34,0,0,0-2.94,9.57c0,8.49,5.28,14.19,13.13,14.19,6.07,0,10.25-3.09,11.78-8.69l.18-.67ZM385,24.46l.46.22-1,5.53-.71-.22a6,6,0,0,0-1.77-.27c-5.73,0-6.19,4.56-6.19,10.07V51.7H370V24.24h5.32v3.32a7.31,7.31,0,0,1,5.5-3.66,7.67,7.67,0,0,1,4.1.56m-60.8,22.78c-4.44,0-7.2-3.54-7.2-9.22s2.76-9.31,7.2-9.31,7.25,3.61,7.25,9.21-2.78,9.32-7.25,9.32m0-23.55c-4.47,0-8,1.7-10.35,4.92A16.46,16.46,0,0,0,311,38c0,8.68,5.14,14.29,13.12,14.29,9.68,0,13.12-7.81,13.12-14.49a15.37,15.37,0,0,0-3.2-9.82,12.39,12.39,0,0,0-9.92-4.31m-13.95.77.46.22-1,5.53-.71-.22a6,6,0,0,0-1.77-.27c-5.72,0-6.19,4.56-6.19,10.07V51.7h-5.68V24.24h5.32v3.32a7.33,7.33,0,0,1,5.51-3.66,7.67,7.67,0,0,1,4.1.56m-24.47,1.16c0,4.22-2.18,5.94-7.55,5.94h-6.92V19.83H279c4.54,0,6.74,1.9,6.74,5.79m-6.79-11.31H265.13V51.7h6.13V37H279c8.36,0,13-4.09,13-11.51,0-3.37-1.27-11.21-13-11.21"/><path class="cls-1" d="M470.51,27.74a4.62,4.62,0,1,1,4.56-4.62,4.54,4.54,0,0,1-4.56,4.62m0-8.46a3.71,3.71,0,0,0-3.74,3.84,3.74,3.74,0,1,0,7.47,0,3.71,3.71,0,0,0-3.73-3.84M470,24v1.54h-1.37V20.67h2.27a1.62,1.62,0,0,1,1.8,1.69,1.44,1.44,0,0,1-.94,1.47l1.11,1.69h-1.51L470.41,24Zm.75-2.17H470v1.08h.75c.41,0,.63-.2.63-.53s-.22-.55-.63-.55"/><polygon class="cls-3" points="80.21 240.91 80.29 240.99 80.21 241.05 80.21 241.21 80.3 241.21 121.72 241.21 121.72 207.24 80.21 207.24 80.21 240.91"/><path class="cls-3" d="M178.63,183.77c19.58-7.31,31.85-24,31.85-48.3,0-35-23.76-54.56-58.22-54.56h-72v34h75a21.28,21.28,0,0,1,15.57,35.78l-33,32.74,37.84,57.82h40.59Z"/><path class="cls-4" d="M60.48.76H0v34H60.48c31.17,0,47,15.54,47,46.2s-15.81,46.17-47,46.17H0v34H60.48c50.39,0,80.94-31.34,80.94-80.14S110.87.76,60.48.76Z"/><polygon class="cls-1" points="80.21 193.12 112.39 160.94 80.21 128.76 80.21 80.91 160.42 160.94 80.33 241.03 80.29 241.21 80.21 241.21 80.21 193.12"/><polygon class="cls-2" points="0 112.97 32.18 80.79 0 48.61 0 0.76 80.21 80.79 0.12 160.88 0.08 161.06 0 161.06 0 112.97"/></g></g></svg>